<svg xmlns="http://www.w3.org/2000/svg" width="670" height="670" viewBox="0 0 670 670" fill="none"><path d="M550.579 181.972C510.982 137.015 449.101 113.083 390.556 107.2C373.4 105.514 356.163 104.785 338.926 105.016C168.947 106.825 119.166 180.056 130.06 215.325C140.955 250.593 171.6 272.288 127.38 321.104C83.1604 369.92 33.3124 443.125 58.6384 516.369C83.9644 589.613 188.833 646.563 340.735 637.518C492.638 628.473 591.181 627.576 622.832 559.798C654.483 492.021 585.312 445.47 575.57 387.354C569.554 351.321 585.017 314.994 586.143 279.068C587.362 240.208 573.346 207.821 550.579 181.972Z" fill="#29C782"></path><path opacity="0.7" d="M550.579 181.972C510.982 137.015 449.101 113.083 390.556 107.2C373.4 105.514 356.163 104.785 338.926 105.016C168.947 106.825 119.166 180.056 130.06 215.325C140.955 250.593 171.6 272.288 127.38 321.104C83.1604 369.92 33.3124 443.125 58.6384 516.369C83.9644 589.613 188.833 646.563 340.735 637.518C492.638 628.473 591.181 627.576 622.832 559.798C654.483 492.021 585.312 445.47 575.57 387.354C569.554 351.321 585.017 314.994 586.143 279.068C587.362 240.208 573.346 207.821 550.579 181.972Z" fill="white"></path><path d="M31.5034 617.941H632.775" stroke="#263238" stroke-width="1.34" stroke-miterlimit="10"></path><path d="M437.349 28.2338H246.212C227.192 28.2338 211.774 43.6522 211.774 62.6718V545.755C211.774 564.775 227.192 580.193 246.212 580.193H437.349C456.369 580.193 471.787 564.775 471.787 545.755V62.6718C471.787 43.6522 456.369 28.2338 437.349 28.2338Z" fill="#142444" stroke="#142444" stroke-width="1.34" stroke-miterlimit="10"></path><path d="M462.729 66.6381V541.789C462.729 549.696 459.588 557.28 453.996 562.871C448.405 568.462 440.821 571.604 432.914 571.604H250.674C249.329 571.603 247.986 571.509 246.654 571.322C239.524 570.346 232.988 566.823 228.252 561.405C223.516 555.987 220.9 549.039 220.886 541.842V66.6381C220.889 58.7295 224.033 51.1459 229.627 45.5549C235.22 39.9639 242.805 36.8231 250.714 36.8231H255.94C272.328 36.8231 288.757 37.1313 305.131 36.8231C305.131 36.9303 305.024 37.1313 305.064 37.2921C309.54 36.5953 316.508 38.5249 319.804 41.7543C324.95 46.8999 330.967 53.9349 338.819 54.7523C347.033 55.5965 353.559 48.9501 358.919 43.6705C364.922 37.7343 372.935 36.8365 381.056 36.8365H432.994C440.885 36.8578 448.446 40.0066 454.02 45.5928C459.594 51.179 462.725 58.7469 462.729 66.6381Z" fill="#29C782"></path><path opacity="0.3" d="M462.729 66.6381V127.22C436.666 158.616 373.203 199.044 301.044 236.791C261.983 257.24 236.818 276.509 220.832 291.812V145.403C223.083 142.214 225.522 138.958 228.148 135.635C259.719 95.7965 336.286 70.2427 390.288 36.8231H432.887C436.805 36.8196 440.685 37.5882 444.305 39.085C447.925 40.5817 451.215 42.7773 453.987 45.5463C456.758 48.3152 458.957 51.6032 460.457 55.2222C461.957 58.8413 462.729 62.7205 462.729 66.6381Z" fill="white"></path><path opacity="0.3" d="M462.729 243.103V428.21C436.666 459.607 373.203 500.034 301.044 537.782C282.067 547.542 263.866 558.741 246.6 571.282C239.471 570.305 232.935 566.783 228.199 561.365C223.463 555.947 220.846 548.998 220.832 541.802V446.394C223.083 443.205 225.522 439.949 228.148 436.626C272.368 380.788 405.028 352.996 440.123 292.294C449.543 276.04 457.315 257.508 462.729 243.103Z" fill="white"></path><path d="M340.239 48.5615C343.14 48.5615 345.492 46.2098 345.492 43.3087C345.492 40.4077 343.14 38.0559 340.239 38.0559C337.338 38.0559 334.987 40.4077 334.987 43.3087C334.987 46.2098 337.338 48.5615 340.239 48.5615Z" fill="#7D7D7D" stroke="white" stroke-width="1.34" stroke-miterlimit="10"></path><path d="M471.68 187.024V118.322C472.927 118.322 474.124 118.818 475.006 119.7C475.888 120.582 476.383 121.778 476.383 123.025V182.307C476.383 183.556 475.888 184.753 475.007 185.638C474.125 186.522 472.929 187.02 471.68 187.024Z" fill="#142444" stroke="#142444" stroke-width="1.34" stroke-miterlimit="10"></path><path d="M471.68 246.225V211.948C472.927 211.948 474.124 212.443 475.006 213.325C475.888 214.207 476.383 215.404 476.383 216.651V241.522C476.383 242.139 476.262 242.751 476.025 243.321C475.789 243.892 475.443 244.411 475.006 244.847C474.569 245.284 474.051 245.631 473.48 245.867C472.909 246.103 472.298 246.225 471.68 246.225Z" fill="#142444" stroke="#142444" stroke-width="1.34" stroke-miterlimit="10"></path><path d="M433.517 329.077H254.667C246.252 329.077 239.431 335.898 239.431 344.313C239.431 352.727 246.252 359.549 254.667 359.549H433.517C441.931 359.549 448.753 352.727 448.753 344.313C448.753 335.898 441.931 329.077 433.517 329.077Z" fill="#DEF5EB" stroke="#142444" stroke-width="1.34" stroke-miterlimit="10"></path><path d="M344.099 249.696C380.421 249.696 409.866 220.251 409.866 183.928C409.866 147.606 380.421 118.161 344.099 118.161C307.776 118.161 278.331 147.606 278.331 183.928C278.331 220.251 307.776 249.696 344.099 249.696Z" stroke="white" stroke-width="1.34" stroke-miterlimit="10"></path><path d="M438.234 47.9318H415.454V60.4206H438.234V47.9318Z" stroke="#142444" stroke-width="1.10023" stroke-linecap="round" stroke-linejoin="round"></path><path d="M433.222 47.9318H415.454V60.4206H433.222V47.9318Z" fill="#142444" stroke="#142444" stroke-width="0.971598" stroke-linecap="round" stroke-linejoin="round"></path><path d="M441.383 51.4158H438.18V56.9232H441.383V51.4158Z" fill="#142444" stroke="#142444" stroke-width="0.971598" stroke-linecap="round" stroke-linejoin="round"></path><path d="M240.838 51.8043H236.657V58.9599H240.838V51.8043Z" fill="#142444" stroke="#142444" stroke-width="1.18334" stroke-linecap="round" stroke-linejoin="round"></path><path d="M247.404 49.2852H243.223V58.96H247.404V49.2852Z" fill="#142444" stroke="#142444" stroke-width="1.18334" stroke-linecap="round" stroke-linejoin="round"></path><path d="M253.97 46.3103H249.789V58.9599H253.97V46.3103Z" fill="#142444" stroke="#142444" stroke-width="1.18334" stroke-linecap="round" stroke-linejoin="round"></path><path d="M425.303 347.676C424.496 347.676 423.722 347.356 423.152 346.785C422.581 346.215 422.261 345.441 422.261 344.635V335C422.261 334.193 422.581 333.42 423.152 332.849C423.722 332.279 424.496 331.958 425.303 331.958C426.109 331.958 426.883 332.279 427.453 332.849C428.024 333.42 428.344 334.193 428.344 335V344.648C428.341 345.452 428.019 346.223 427.449 346.79C426.879 347.358 426.107 347.676 425.303 347.676Z" fill="#142444"></path><path d="M425.316 349.861C423.894 349.861 422.531 349.296 421.526 348.291C420.521 347.286 419.956 345.922 419.956 344.501V339.958C419.956 339.885 419.971 339.812 419.999 339.745C420.027 339.677 420.069 339.616 420.122 339.565C420.174 339.514 420.236 339.473 420.304 339.447C420.373 339.42 420.446 339.407 420.519 339.409C420.591 339.409 420.662 339.423 420.729 339.45C420.796 339.478 420.856 339.519 420.907 339.57C420.958 339.621 420.999 339.681 421.026 339.748C421.054 339.814 421.068 339.886 421.068 339.958V344.487C421.129 345.578 421.606 346.604 422.399 347.354C423.193 348.104 424.244 348.523 425.336 348.523C426.428 348.523 427.479 348.104 428.273 347.354C429.067 346.604 429.543 345.578 429.604 344.487V339.958C429.604 339.812 429.662 339.673 429.765 339.57C429.868 339.466 430.008 339.409 430.153 339.409C430.227 339.407 430.3 339.42 430.368 339.447C430.436 339.473 430.498 339.514 430.551 339.565C430.603 339.616 430.645 339.677 430.673 339.745C430.702 339.812 430.716 339.885 430.716 339.958V344.487C430.718 345.196 430.579 345.897 430.308 346.552C430.037 347.206 429.639 347.801 429.137 348.3C428.635 348.8 428.038 349.195 427.383 349.463C426.727 349.731 426.024 349.866 425.316 349.861Z" fill="#142444"></path><path d="M425.316 355.649C425.173 355.646 425.036 355.586 424.936 355.484C424.836 355.381 424.78 355.243 424.78 355.1V349.311C424.767 349.231 424.772 349.149 424.795 349.071C424.817 348.993 424.856 348.92 424.909 348.858C424.961 348.797 425.027 348.747 425.101 348.713C425.175 348.679 425.255 348.662 425.336 348.662C425.417 348.662 425.498 348.679 425.571 348.713C425.645 348.747 425.711 348.797 425.764 348.858C425.816 348.92 425.855 348.993 425.877 349.071C425.9 349.149 425.905 349.231 425.892 349.311V355.1C425.892 355.174 425.877 355.248 425.848 355.317C425.819 355.385 425.776 355.447 425.722 355.498C425.668 355.55 425.604 355.59 425.534 355.615C425.465 355.641 425.39 355.653 425.316 355.649Z" fill="#142444"></path><path d="M429.028 355.944H421.618C421.544 355.946 421.471 355.933 421.403 355.906C421.335 355.879 421.273 355.839 421.22 355.788C421.168 355.737 421.126 355.676 421.098 355.608C421.069 355.541 421.055 355.468 421.055 355.395C421.055 355.245 421.114 355.102 421.22 354.997C421.325 354.891 421.468 354.832 421.618 354.832H429.028C429.177 354.832 429.32 354.891 429.426 354.997C429.531 355.102 429.591 355.245 429.591 355.395C429.591 355.468 429.576 355.541 429.548 355.608C429.519 355.676 429.477 355.737 429.425 355.788C429.373 355.839 429.31 355.879 429.242 355.906C429.174 355.933 429.101 355.946 429.028 355.944Z" fill="#142444"></path><path d="M213.944 422.006C213.944 422.006 214.534 425.035 215.11 425.182C215.686 425.329 221.341 425.035 221.475 423.587C221.609 422.14 218.581 421.269 218.581 421.269L213.944 422.006Z" fill="white" stroke="#142444" stroke-width="1.34" stroke-linejoin="round"></path><path d="M516.181 424.311L518.098 423.48C518.474 423.319 518.893 423.288 519.289 423.393C519.685 423.497 520.034 423.731 520.282 424.056L524.53 429.765C525.267 428.813 526.164 427.808 526.861 427.085L527.022 426.978C527.358 426.851 527.721 426.817 528.075 426.878C528.428 426.939 528.759 427.094 529.032 427.326C529.28 427.551 529.47 427.834 529.584 428.149C529.699 428.464 529.734 428.803 529.689 429.135C531.107 431.305 532.357 433.581 533.427 435.942C534.057 436.947 543.893 445.738 550.351 451.406L550.673 451.607C549.905 450.179 549.447 448.606 549.33 446.99C549.212 445.373 549.437 443.75 549.99 442.227C551.531 438.207 554.01 424.901 554.17 423.641C554.036 423.212 553.902 422.837 553.782 422.502C553.173 423.337 552.307 423.949 551.316 424.244C548.743 424.713 547.296 423.319 546.184 422.609C545.072 421.899 542.687 423.078 540.355 422.609C538.023 422.14 538.492 420.05 537.554 418.884C536.616 417.718 534.995 420.747 533.119 418.884C531.243 417.021 524.958 410.254 526.419 402.335C527.88 394.416 535.276 386.255 535.276 386.255C536.86 384.537 538.857 383.254 541.079 382.53C547.135 380.439 555.537 380.212 562.291 385.799C569.044 391.387 570.224 402.817 572.555 408.888C574.887 414.958 576.28 418.911 575.825 421.015C575.476 422.529 571.952 421.108 569.594 420.304C572.671 425.765 575.099 431.566 576.83 437.59C577.875 441.048 579.161 446.394 580.662 453.402C582.454 459.276 583.683 465.306 584.334 471.412C585.969 476.263 587.563 481.087 588.863 485C590.431 489.703 591.543 493.107 591.824 493.844C592.682 496.189 594.504 501.884 594.826 502.835C597.962 505.193 599.543 506.681 599.543 507.284C599.368 508.343 598.94 509.345 598.297 510.205L599.489 512.885L618.665 534.325L623.81 533.869C623.902 533.864 623.994 533.888 624.071 533.939C624.149 533.99 624.207 534.064 624.239 534.151L636.58 572.18C636.627 572.292 636.627 572.417 636.58 572.528C636.547 572.581 636.502 572.626 636.449 572.659C636.395 572.691 636.335 572.711 636.272 572.716L625.901 573.761L627.147 578.599L586.049 582.257L586.866 585.258L589.185 593.62L593.62 607.61C594.263 608.266 596.608 610.745 596.461 612.192C596.45 612.355 596.402 612.514 596.321 612.655C596.24 612.797 596.127 612.918 595.992 613.01C595.35 613.506 594.77 614.078 594.263 614.712C593.285 615.824 592.374 616.869 591.409 617.03C591.012 617.057 590.613 617.057 590.216 617.03C587.979 617.03 583.704 616.681 582.806 615.931C582.725 615.867 582.659 615.785 582.613 615.693C582.567 615.6 582.541 615.498 582.538 615.395C582.538 614.578 583.784 613.867 585.701 612.862C586.29 612.541 586.853 612.246 587.134 612.045C587.845 611.399 588.471 610.665 588.997 609.861C587.416 606.645 569.594 568.83 566.82 562.8C566.785 562.704 566.744 562.61 566.699 562.519L566.632 562.358L566.485 562.036C565.989 560.83 565.145 553.782 564.408 545.956L554.318 610.946C553.996 617.794 553.045 617.914 552.737 617.954C552.482 617.954 538.372 616.212 537.836 614.564C537.798 614.487 537.778 614.402 537.778 614.316C537.778 614.23 537.798 614.146 537.836 614.068C538.506 612.822 546.278 610.705 549.105 609.955C549.105 608.615 549.105 604.461 548.998 598.538C548.998 592.95 548.73 569.848 548.81 551.169V549.829C548.81 541.119 548.971 533.749 549.186 529.514C549.186 529.313 549.186 529.126 549.186 528.952V528.764C549.186 528.617 549.186 528.469 549.186 528.335C549.192 528.255 549.192 528.174 549.186 528.094C549.192 527.987 549.192 527.879 549.186 527.772C549.192 527.674 549.192 527.576 549.186 527.478C549.186 527.411 549.186 527.33 549.186 527.263C549.178 527.12 549.178 526.977 549.186 526.834C549.949 520.979 552.67 505.756 554.438 496.095C553.824 496.494 553.128 496.751 552.402 496.845C552.295 496.866 552.186 496.866 552.08 496.845C551.956 496.814 551.843 496.752 551.749 496.665C551.655 496.579 551.585 496.47 551.544 496.349C551.115 495.277 551.691 492.597 552.643 488.644L552.924 487.465C553.835 483.566 555.457 472.002 555.47 471.948C555.316 469.942 555.021 467.949 554.586 465.985C554.543 466.076 554.482 466.156 554.406 466.221C554.329 466.285 554.24 466.333 554.144 466.36H554.063C553.393 466.36 551.598 464.444 540.208 451.057C535.692 445.697 530.56 439.721 529.97 439.359C529.38 438.997 527.585 438.475 526.339 438.019L526.097 438.234C525.922 438.389 525.717 438.508 525.494 438.581C525.271 438.654 525.035 438.681 524.802 438.66C524.568 438.638 524.342 438.569 524.136 438.457C523.93 438.344 523.749 438.191 523.605 438.006L522.01 435.969C522.076 436.123 522.122 436.285 522.144 436.451C522.157 436.504 522.153 436.558 522.134 436.609C522.115 436.659 522.081 436.702 522.037 436.733C521.983 436.774 521.918 436.798 521.85 436.8H521.742C521.381 436.679 518.098 435.554 517.588 434.294C517.213 432.982 516.975 431.635 516.878 430.274C516.87 430.211 516.882 430.146 516.914 430.091C516.945 430.035 516.994 429.991 517.052 429.966C517.118 429.946 517.188 429.946 517.253 429.966L515.15 427.286C514.942 427.044 514.802 426.752 514.742 426.439C514.683 426.126 514.707 425.803 514.811 425.502C514.915 425.201 515.097 424.933 515.337 424.724C515.578 424.515 515.869 424.372 516.181 424.311ZM518.486 433.919C518.754 434.575 520.389 435.379 521.675 435.862C520.602 434.099 519.339 432.459 517.91 430.971C517.999 431.971 518.192 432.959 518.486 433.919ZM585.821 540.355L588.501 540.06L588.943 537.26C588.962 537.17 589.008 537.088 589.075 537.026C589.143 536.963 589.228 536.923 589.319 536.911L590.417 536.817L594.96 512.59C594.612 512.148 594.29 511.759 594.156 511.572C593.155 511.189 592.304 510.494 591.731 509.589C590.815 507.879 590.237 506.009 590.029 504.081C589.828 503.572 587.456 497.381 584.669 491.07C584.669 493.964 584.588 495.358 584.588 495.371C584.583 495.447 584.558 495.52 584.515 495.584C584.473 495.647 584.415 495.699 584.347 495.733C584.282 495.772 584.208 495.793 584.133 495.793C584.057 495.793 583.983 495.772 583.918 495.733C583.364 498.737 582.096 501.563 580.22 503.974L577.915 552.938L583.275 572.301V571.992L585.821 540.355ZM595.697 513.421L591.221 536.75L592.937 536.603L596.139 513.93L595.697 513.421ZM598.283 512.791C598.295 512.952 598.295 513.113 598.283 513.274C598.296 513.331 598.296 513.39 598.283 513.448C598.283 513.609 597.921 514.453 597.292 514.6H597.117C597.024 514.613 596.929 514.613 596.836 514.6L593.727 536.549L608.4 535.209L598.712 513.3L598.283 512.791ZM600.548 515.324L609.325 535.156L617.606 534.432L600.548 515.324Z" fill="#142444"></path><path d="M223.887 581.627C223.233 580.812 222.45 580.111 221.569 579.55C220.281 578.836 219.278 577.7 218.728 576.334C218.443 575.461 218.075 574.618 217.629 573.815C219.144 572.18 220.631 569.594 220.577 568.053C220.6 567.815 220.563 567.575 220.469 567.355C220.376 567.135 220.229 566.942 220.041 566.793C219.519 566.485 218.835 566.793 217.911 567.343C217.408 567.631 216.889 567.89 216.356 568.12C215.755 568.365 215.131 568.554 214.494 568.683C214.186 568.214 213.958 567.905 213.931 567.852C213.889 567.789 213.828 567.742 213.757 567.718C213.676 567.718 212.913 567.343 211.72 566.941C212.812 566.146 213.657 565.059 214.159 563.805C214.507 562.612 214.36 561.715 213.77 561.433C213.489 561.286 212.752 561.125 211.72 562.505C210.331 563.83 208.727 564.908 206.976 565.694C205.174 565.357 203.342 565.213 201.509 565.266C200.437 564.649 196.591 562.586 194.367 562.586C192.772 561.085 188.766 557.44 187.386 557.44C187.007 557.432 186.631 557.51 186.287 557.668L130.771 519.062C131.695 518.385 132.403 517.454 132.807 516.382C133.504 513.622 131.467 508.155 129.846 507.337L128.506 506.654C128.449 506.621 128.384 506.604 128.318 506.604C128.253 506.604 128.188 506.621 128.131 506.654L127.742 506.882C127.548 506.246 127.283 505.635 126.952 505.059C126.469 504.336 124.741 502.379 123.669 501.173C123.867 500.982 124.022 500.75 124.124 500.493C124.225 500.237 124.271 499.962 124.258 499.686C124.057 498.909 122.262 496.564 119.327 492.798C117.464 490.4 115.535 487.921 114.932 486.862C114.074 485.375 110.912 478.434 108.674 473.462C108.379 472.122 108.071 470.608 107.763 469.094L114.463 464.833L118.912 461.978L129.431 459.62C129.474 459.633 129.521 459.633 129.565 459.62C129.873 459.419 130.73 458.387 129.042 453.657C128.814 453.014 128.573 452.397 128.345 451.781C131.414 450.441 138.703 446.97 139.574 446.099C140.445 445.228 142.442 440.391 142.723 439.667C142.978 439.292 143.889 437.899 143.675 437.054C143.64 436.931 143.579 436.817 143.495 436.72C143.412 436.623 143.309 436.545 143.192 436.492C142.97 436.409 142.733 436.373 142.496 436.384L146.516 431.212C146.693 430.988 146.817 430.726 146.877 430.446C146.937 430.167 146.932 429.877 146.862 429.6C146.792 429.322 146.659 429.065 146.473 428.847C146.288 428.629 146.055 428.457 145.792 428.344L143.822 427.487C143.434 427.319 143 427.287 142.592 427.396C142.183 427.506 141.823 427.75 141.571 428.09L137.203 433.946C136.95 433.689 136.636 433.5 136.291 433.396C135.126 433.008 133.866 434.642 133.491 435.178C131.593 436.072 129.932 437.398 128.64 439.051C127.778 440.096 127.305 441.408 127.3 442.763C127.309 443.052 127.273 443.342 127.193 443.62C126.555 444.591 125.725 445.421 124.754 446.059C124.505 445.898 124.223 445.794 123.929 445.754C123.634 445.715 123.335 445.741 123.052 445.831C121.578 446.032 111.984 450.977 104.694 454.823L100.54 435.071L101.237 434.843C101.338 434.81 101.43 434.755 101.509 434.684C101.587 434.612 101.65 434.525 101.693 434.428C102.188 433.316 100.741 429.832 100.446 429.148C100.429 429.103 100.402 429.061 100.366 429.028L95.7966 424.204L96.9624 423.44C98.9354 422.261 101.204 421.671 103.502 421.738C106.182 423.252 109.719 424.003 110.872 422.422C111.783 421.162 113.109 417.062 114.114 412.479C114.644 412.548 115.182 412.457 115.659 412.218C116.137 411.98 116.532 411.604 116.794 411.139C117.558 409.732 116.138 406.476 115.454 405.028C115.615 403.688 115.749 402.348 115.843 401.129C116.069 398.722 115.865 396.295 115.24 393.96L115.508 394.027C119.528 395.086 123.776 395.086 122.717 389.565C121.659 384.044 117.357 385.116 115.294 385.116C113.23 385.116 117.424 381.096 112.962 379.595C108.5 378.094 107.602 380.654 107.24 382.141C106.878 383.629 104.694 383.629 102.778 383.629C100.862 383.629 98.9724 381.297 91.7498 384.057C84.5272 386.818 83.2676 396.359 84.9694 402.08C86.5908 407.574 87.5422 410.362 90.4768 411.782C90.4768 411.782 90.4768 411.782 90.4768 411.862C89.5808 413.933 88.3793 415.857 86.9124 417.571C86.4869 417.12 85.9997 416.732 85.4652 416.418C83.5624 415.655 81.3514 419.527 80.9226 420.318C80.9087 420.38 80.9087 420.444 80.9226 420.505C77.1304 424.525 71.9446 431.386 70.484 439.265C68.139 451.955 65.124 497.81 65.124 498.225C65.1176 498.318 65.1435 498.41 65.1972 498.486C65.2509 498.561 65.3292 498.616 65.4188 498.641C65.4188 498.641 67.1876 499.123 69.948 499.74C69.8854 502.531 70.2101 505.318 70.9128 508.021C72.6012 514.078 75.2946 519.478 75.2946 520.483C75.2946 521.488 73.2712 550.807 72.9362 551.812C72.6012 552.817 51.4962 600.28 50.1562 605.01C50.0897 604.993 50.0201 604.994 49.9542 605.013C49.8883 605.032 49.8285 605.068 49.781 605.117C48.642 606.457 44.957 610.785 45.3054 612.219C45.7208 613.881 51.4828 616.574 54.069 616.896C55.4033 617.05 56.7459 617.121 58.089 617.11C60.769 617.11 63.5964 616.869 64.789 616.172C64.9427 616.102 65.0727 615.989 65.1631 615.846C65.2535 615.703 65.3004 615.537 65.2982 615.368C65.2982 614.645 64.253 614.135 62.4574 613.318C61.5012 612.951 60.5996 612.455 59.7774 611.844C58.4374 610.504 55.9852 608.36 55.677 608.092C58.6384 603.992 89.177 561.473 90.8252 559.236C91.4282 558.378 92.6208 552.268 93.934 544.723L96.212 552.83C96.212 552.83 97.552 567.986 100.594 576.749C103.394 584.87 109.103 605.988 109.974 609.043C109.899 609.063 109.831 609.104 109.779 609.161C109.727 609.218 109.692 609.289 109.679 609.365C109.572 609.995 108.674 615.623 109.679 617.405C109.786 617.593 109.96 617.887 111.019 617.887C113.211 617.731 115.375 617.308 117.464 616.628C120.982 615.623 124.444 614.433 127.836 613.063C128.377 614.525 129.068 615.926 129.9 617.244C130.113 617.428 130.382 617.532 130.663 617.539H130.864C132.365 617.231 132.204 611.134 131.494 600.802C131.494 600.333 131.494 599.998 131.494 599.891C132.51 599.407 133.595 599.086 134.71 598.94L136.425 598.565C135.609 599.7 135.177 601.066 135.193 602.464C135.608 604.501 138.61 612.97 140.07 614.658C140.692 615.402 141.475 615.996 142.359 616.395C143.243 616.794 144.206 616.988 145.176 616.963H145.524C147.561 616.896 147.829 616.521 148.204 615.395V615.248C148.472 614.31 147.293 613.908 146.14 613.532C145.484 613.387 144.87 613.094 144.345 612.675C143.003 609.872 142.026 606.909 141.437 603.858C141.437 603.322 142.375 602.209 143.487 600.923C145.979 598.298 147.972 595.243 149.37 591.905C150.081 590.239 150.402 588.434 150.308 586.625C152.102 587.406 153.813 588.367 155.413 589.493C159.862 592.494 168.813 594.638 176.558 594.853C176.856 596.336 177.246 597.799 177.724 599.235C178.498 601.235 179.421 603.174 180.485 605.037C179.565 605.614 178.586 606.091 177.563 606.457C176.701 606.15 175.798 605.969 174.883 605.921C174.789 605.924 174.697 605.947 174.612 605.988C174.527 606.029 174.452 606.087 174.391 606.159C174.33 606.231 174.286 606.315 174.26 606.406C174.234 606.497 174.227 606.592 174.24 606.685C174.24 607.784 176.103 610.316 177.684 610.316H177.751C179.455 610.014 181.107 609.468 182.655 608.695C184.746 612.099 187.171 616.346 188.297 616.856C189.82 617.574 191.466 617.997 193.148 618.102C193.639 618.116 194.128 618.025 194.581 617.834C194.825 617.73 195.042 617.572 195.216 617.373C195.39 617.173 195.517 616.937 195.586 616.681C195.753 616.31 195.839 615.909 195.839 615.502C195.839 615.096 195.753 614.694 195.586 614.323C195.251 613.814 194.608 613.559 193.469 613.224L191.58 612.675C191.231 612.085 189.556 608.373 188.163 605.559C190.213 603.804 189.583 602.263 188.618 599.985L188.444 599.583C187.868 598.243 187.104 595.657 186.421 593.526C189.281 592.513 191.635 590.427 192.987 587.711L195.533 586.156C196.699 587.389 199.553 587.322 212.068 586.049C212.952 586.105 213.813 586.357 214.588 586.786C215.433 587.156 216.345 587.352 217.268 587.362C217.613 587.363 217.958 587.336 218.299 587.282L221.971 586.706C222.032 586.724 222.097 586.724 222.159 586.706C222.105 586.518 225.522 583.892 223.887 581.627ZM134.871 563.751C134.725 563.339 134.698 562.895 134.793 562.469C134.888 562.042 135.101 561.651 135.407 561.339C135.839 560.728 136.461 560.277 137.176 560.057C137.891 559.836 138.659 559.858 139.36 560.12C140.201 560.458 140.923 561.036 141.437 561.782C140.687 561.828 139.939 561.917 139.199 562.05C137.663 562.341 136.194 562.918 134.871 563.751ZM102.121 502.741C104.989 502.621 106.798 502.433 106.838 502.433C106.939 502.426 107.033 502.38 107.1 502.305C107.168 502.23 107.204 502.132 107.2 502.031C107.2 502.031 107.2 501.549 107.2 500.544L108.299 500.852H108.54C108.749 501.386 108.893 501.944 108.969 502.513C108.969 504.336 113.391 507.967 114.329 508.677C114.403 508.73 114.492 508.758 114.583 508.758C114.675 508.758 114.763 508.73 114.838 508.677L115.079 508.476C115.508 509.548 116.071 510.982 116.258 511.572C116.471 512.177 116.75 512.756 117.089 513.3C116.138 514.011 114.677 515.404 115.227 517.079C115.977 519.317 119.863 522.118 122.02 522.828C122.237 522.896 122.463 522.928 122.69 522.922C124.416 522.723 126.08 522.156 127.568 521.26C128.458 520.777 129.309 520.226 130.114 519.612L185.67 558.177C185.631 558.218 185.595 558.263 185.563 558.311C185.439 558.579 185.395 558.876 185.436 559.168C185.476 559.461 185.599 559.735 185.791 559.959C186.938 560.996 188.201 561.895 189.556 562.639C188.696 562.684 187.843 562.818 187.01 563.041C185.898 563.363 179.654 564.998 165.289 565.547C160.577 565.639 155.884 564.914 151.42 563.403H151.286C151.674 561.597 151.642 559.727 151.192 557.936C150.053 553.487 144.693 545.675 138.516 546.653C136.694 546.89 134.944 547.51 133.38 548.474C131.817 549.437 130.475 550.721 129.444 552.241C128.77 553.411 128.373 554.719 128.282 556.066C128.192 557.413 128.41 558.763 128.921 560.013C131.427 566.981 129.069 570.036 129.042 570.063C128.977 570.157 128.948 570.271 128.962 570.384C127.074 573.927 126.176 577.912 126.362 581.922C126.645 584.508 127.366 587.027 128.493 589.372C129.243 591.061 129.739 592.173 129.216 593.03C128.895 593.553 128.359 593.566 127.514 593.526C127.102 593.454 126.679 593.472 126.275 593.578C125.87 593.685 125.493 593.877 125.169 594.143C124.486 594.839 124.205 596.112 124.285 598.163C124.518 601.9 125.17 605.599 126.228 609.191C123.749 608.534 120.533 607.945 117.612 607.462H117.505C117.062 602.812 112.828 557.695 112.828 552.268C112.828 546.532 101.706 508.128 101.706 506.105C101.773 504.976 101.911 503.852 102.121 502.741Z" fill="#142444"></path><path d="M448.565 515.056C448.565 515.056 445.563 542.419 444.625 544.107C443.687 545.795 438.26 552.536 436.585 558.539C434.91 564.542 423.654 598.833 423.654 598.833L420.84 605.023L420.09 615.14L421.591 615.703L424.03 610.464C424.798 610.557 425.529 610.847 426.153 611.304C426.777 611.762 427.274 612.372 427.594 613.077C429.095 615.757 429.095 616.641 433.034 617.016C436.974 617.392 443.339 617.767 444.277 616.641C445.215 615.516 444.84 614.765 444.277 614.39C443.714 614.015 439.212 611.576 439.212 611.576L433.222 601.084L433.771 596.394C433.771 596.394 456.27 556.1 458.883 552.723C461.496 549.346 468.826 533.615 468.826 533.615L448.565 515.056Z" fill="#C6867E" stroke="#263238" stroke-width="1.34" stroke-linejoin="round"></path><path d="M468.812 533.615L448.565 515.056C448.565 515.056 445.563 542.419 444.625 544.107C443.687 545.795 438.26 552.536 436.585 558.539C436.076 560.334 434.723 564.663 433.061 569.835C437.235 571.892 441.665 573.384 446.233 574.27C451.902 564.274 457.637 554.331 458.883 552.723C461.496 549.4 468.812 533.615 468.812 533.615Z" fill="#757575" stroke="#263238" stroke-width="1.34" stroke-linejoin="round"></path><path d="M444.264 616.641C445.202 615.516 444.826 614.765 444.264 614.39C443.701 614.015 439.198 611.576 439.198 611.576L436.384 613.264C434.619 613.215 432.89 612.757 431.333 611.924C429.081 610.584 427.581 608.749 425.517 605.747C424.545 604.341 423.485 602.998 422.341 601.727L420.827 605.037L420.077 615.154L421.577 615.717L424.016 610.477C424.784 610.571 425.516 610.86 426.14 611.318C426.764 611.775 427.26 612.386 427.581 613.09C429.081 615.77 429.081 616.655 433.021 617.03C436.961 617.405 443.326 617.74 444.264 616.641Z" fill="#263238" stroke="#263238" stroke-width="1.34" stroke-linejoin="round"></path><path d="M444.625 480.377C444.625 480.377 438.26 493.87 440.123 502.875C441.986 511.88 456.203 526.298 457.181 527.987C458.159 529.675 472.564 547.109 472.564 547.109C472.564 547.109 472.189 563.189 477.616 572.22C483.043 581.252 494.674 599.958 494.674 599.958C494.674 599.958 493.924 605.76 494.299 606.323C494.674 606.886 496.979 616.266 496.979 616.266H498.48L498.855 611.013C498.855 611.013 502.982 614.765 504.108 615.703C505.234 616.641 515.538 615.891 517.602 615.516C519.665 615.14 522.962 613.827 521.729 613.264C519.029 611.896 516.399 610.394 513.85 608.762C512.161 607.636 506.721 600.722 504.671 598.27C502.621 595.818 497.167 578.585 493.602 569.781C490.038 560.978 485.562 547.484 485.562 544.107C485.562 540.73 476.745 510.178 476.745 510.178C476.745 510.178 479.934 496.497 479.559 489.381C479.184 482.266 450.883 478.661 450.079 478.501C449.275 478.34 444.625 480.377 444.625 480.377Z" fill="#C6867E" stroke="#263238" stroke-width="1.34" stroke-linejoin="round"></path><path d="M477.388 571.818C479.452 571.992 484.464 571.738 492.691 567.597C489.301 558.887 485.495 547.216 485.495 544.107C485.495 540.73 476.678 510.178 476.678 510.178C476.678 510.178 479.867 496.497 479.492 489.381C479.117 482.266 450.816 478.661 450.012 478.501C449.208 478.34 444.572 480.377 444.572 480.377C444.572 480.377 438.207 493.87 440.069 502.875C441.932 511.88 456.149 526.298 457.128 527.987C458.106 529.675 472.511 547.109 472.511 547.109C472.511 547.109 472.203 562.8 477.388 571.818Z" fill="#757575" stroke="#263238" stroke-width="1.34" stroke-linejoin="round"></path><path d="M476.678 510.178L471.372 497.381" stroke="#263238" stroke-width="1.34" stroke-linejoin="round"></path><path d="M521.675 613.264C520.563 612.795 516.959 610.732 514.828 609.419L511.88 612.38C508.958 612.284 506.088 611.581 503.451 610.316C500.142 608.333 497.068 605.982 494.286 603.308C494.131 604.325 494.131 605.36 494.286 606.377C494.661 606.94 496.966 616.32 496.966 616.32H498.48L498.855 611.067C498.855 611.067 502.982 614.819 504.108 615.757C505.234 616.695 515.538 615.944 517.602 615.569C519.665 615.194 522.975 613.827 521.675 613.264Z" fill="#263238" stroke="#263238" stroke-width="1.34" stroke-linejoin="round"></path><path d="M445.001 482.628C445.001 482.628 464.122 490.132 468.987 490.132C472.499 490.071 476.006 489.821 479.492 489.381L480.993 483.566C480.993 483.566 481.167 467.821 480.604 462.568C480.042 457.315 476.678 439.52 476.115 436.84C475.553 434.16 470.34 417.959 470.34 417.959L450.655 418.16L450.481 467.07L445.001 482.628Z" fill="#EAF5D2" stroke="#263238" stroke-width="1.34" stroke-linejoin="round"></path><path d="M470.97 406.958C472.722 408.89 474.373 410.911 475.914 413.015C477.388 415.239 481.958 416.968 481.958 416.968C481.958 416.968 482.949 420.787 484.316 426.844C485.683 432.9 483.82 442.28 484.812 445.738C485.804 449.195 492.705 456.23 493.817 455.118C494.929 454.005 498.761 439.185 497.395 435.607C496.028 432.029 487.639 416.351 487.639 415.507C487.639 414.663 486.527 405.873 486.031 405.256C485.681 404.762 485.393 404.226 485.174 403.662L473.569 404.64L470.97 406.958Z" fill="#C6867E" stroke="#263238" stroke-width="1.34" stroke-linejoin="round"></path><path d="M473.315 406.958L481.475 411.286L485.174 403.635L476.156 399.561L473.315 406.958Z" fill="#263238" stroke="#263238" stroke-width="1.34" stroke-linejoin="round"></path><path d="M480.98 399.186C480.98 399.186 479.867 396.72 478.876 397.337C477.884 397.953 475.914 402.147 476.276 402.697L476.651 403.193L480.98 399.186Z" fill="white" stroke="#263238" stroke-width="1.34" stroke-linejoin="round"></path><path d="M483.191 400.539C483.191 400.539 482.092 398.57 480.98 399.199C479.867 399.829 477.764 402.777 478.139 403.219C478.601 403.65 479.143 403.987 479.733 404.211L483.191 400.539Z" fill="white" stroke="#263238" stroke-width="1.34" stroke-linejoin="round"></path><path d="M485.174 403.635L483.191 400.539C483.191 400.539 479.372 403.38 479.733 404.251C480.095 405.122 483.445 403.139 483.445 403.139L485.174 403.635Z" fill="white" stroke="#263238" stroke-width="1.34" stroke-linejoin="round"></path><path d="M466.749 414.516C466.749 414.516 470.3 423.963 471.801 427.916C474.956 436.224 477.281 444.824 478.742 453.59C480.792 465.958 480.993 483.579 480.993 483.579C480.993 483.579 487.693 481.891 487.693 480.39C487.693 478.889 481.69 452.089 481.69 452.089L493.75 455.131L489.542 438.408L480.162 432.029C480.162 432.029 477.161 420.224 476.048 418.348C474.936 416.472 466.749 414.516 466.749 414.516Z" fill="#142444" stroke="#142444" stroke-width="1.34" stroke-linejoin="round"></path><path d="M484.825 433.302C484.825 438.234 484.129 443.366 484.825 445.738C485.804 449.195 492.718 456.23 493.83 455.118C494.942 454.005 500.972 454.608 497.408 435.607C497.064 434.556 496.615 433.541 496.068 432.579L490.4 434.83L484.825 433.302Z" fill="#142444" stroke="#142444" stroke-width="1.34" stroke-linejoin="round"></path><path d="M483.043 430.14C483.043 430.14 490.172 431.48 490.735 431.48C492.803 430.421 494.803 429.235 496.725 427.929L498.976 435.232L490.36 440.11L483.231 437.108L483.043 430.14Z" fill="#EAF5D2" stroke="#263238" stroke-width="1.34" stroke-linejoin="round"></path><path d="M452.25 400.124L455.064 402.295C455.27 404.098 455.092 405.925 454.541 407.655C453.657 409.598 450.294 415.963 450.294 415.963C450.294 415.963 457.195 424.458 460.196 426.053C463.198 427.648 469.576 429.765 469.764 429.242C470.107 427.671 470.282 426.067 470.286 424.458C470.286 422.515 466.749 414.556 466.749 414.556L469.75 407.655C469.75 407.655 474.36 408.713 475.11 407.467C475.861 406.221 478.648 399.159 478.648 399.159C478.648 399.159 480.591 398.623 479.707 397.029C478.822 395.434 476.692 393.665 476.692 393.143C476.692 392.62 477.576 388.185 477.576 386.59C477.576 384.995 474.588 379.354 474.588 379.354L451.58 396.64L452.25 400.124Z" fill="#C6867E" stroke="#263238" stroke-width="1.34" stroke-linejoin="round"></path><path d="M472.296 375.95L445.496 390.007L452.25 400.124L474.548 379.314L472.296 375.95Z" fill="#EAF5D2" stroke="#263238" stroke-width="1.34" stroke-miterlimit="10"></path><path d="M472.31 375.95C472.648 372.729 472.32 369.472 471.345 366.383C469.75 362.363 463.211 360.715 463.385 361.773C463.56 362.832 463.908 364.078 463.908 364.078C463.908 364.078 449.409 362.309 446.22 364.788C443.031 367.267 434.723 377.88 435.607 381.243C436.492 384.607 439.145 383.374 439.145 383.374C439.145 383.374 437.899 384.607 439.667 387.086C441.436 389.565 446.568 389.203 446.568 389.203L472.31 375.95Z" fill="#263238" stroke="#263238" stroke-width="1.34" stroke-miterlimit="10"></path><path d="M470.461 398.583C470.461 398.583 470.822 400.7 473.824 401.062" stroke="#263238" stroke-width="1.34" stroke-linejoin="round"></path><path d="M474.829 392.03C474.829 392.915 474.373 393.625 473.797 393.625C473.221 393.625 472.765 392.915 472.765 392.03C472.765 391.146 473.221 390.436 473.797 390.436C474.373 390.436 474.829 391.146 474.829 392.03Z" fill="#263238"></path><path d="M471.881 388.855C471.881 388.855 473.65 387.086 475.419 388.319" stroke="#263238" stroke-width="1.34" stroke-linejoin="round"></path><path d="M455.774 397.35C456.171 397.842 456.652 398.259 457.195 398.583C457.951 398.774 458.743 398.774 459.499 398.583L461.965 402.121" stroke="#263238" stroke-width="1.34" stroke-linejoin="round"></path><path d="M452.773 411.152L447.815 413.095L435.245 415.923C435.245 415.923 426.227 467.593 427.299 468.183C428.371 468.772 447.118 464.471 447.118 464.471L441.275 481.06C441.275 481.06 455.613 487.077 458.267 487.425C460.92 487.773 471.184 487.787 471.184 487.787C471.184 487.787 469.228 453.456 466.4 441.771C464.541 433.679 461.87 425.796 458.427 418.241C456.779 415.698 454.885 413.324 452.773 411.152Z" fill="#142444" stroke="#142444" stroke-width="1.34" stroke-linejoin="round"></path><path d="M442.508 455.386L444.103 468.839L452.062 467.245L450.468 453.617L442.508 455.386Z" fill="#EAF5D2" stroke="#263238" stroke-width="1.34" stroke-linejoin="round"></path><path d="M450.468 455.386L457.369 452.196L463.211 442.468L475.07 441.048L474.708 442.816L467.459 443.888L467.633 445.657L475.78 444.585V446.22L467.807 448.699L474.36 449.061L473.476 451.004L467.995 451.178L473.355 453.483L472.296 454.716L465.208 453.831C465.208 453.831 463.975 456.659 462.032 457.195C460.089 457.731 457.784 458.253 457.784 458.253L451.232 462.863L450.468 455.386Z" fill="#C6867E" stroke="#263238" stroke-width="1.34" stroke-linejoin="round"></path><path d="M439.145 455.211L435.969 474.682L438.086 474.494L440.86 456.123C440.994 455.158 440.86 455.238 439.962 454.93L439.145 455.211Z" fill="white" stroke="#263238" stroke-width="1.34" stroke-linejoin="round"></path><path d="M424.284 470.434L437.376 472.899L458.615 473.087L460.035 498.386L436.853 498.56C436.143 498.56 419.514 494.849 419.514 494.849L424.284 470.434Z" fill="#EAF5D2" stroke="#263238" stroke-width="1.34" stroke-linejoin="round"></path><path d="M436.84 498.56L460.022 498.386L458.602 473.087L456.846 490.44C456.846 490.44 446.046 491.847 438.796 490.614C431.547 489.381 424.78 487.599 424.78 487.599L424.244 470.434L419.474 494.849C419.474 494.849 436.143 498.56 436.84 498.56Z" fill="#787878" stroke="#263238" stroke-width="1.34" stroke-linejoin="round"></path><path d="M264.69 604.34C264.69 604.34 261.313 609.821 260.469 610.665C259.625 611.509 255.203 614.042 254.573 615.087C253.943 616.132 254.144 617.204 256.047 617.418C261.345 617.385 266.632 616.937 271.859 616.078C273.762 615.449 282.82 606.162 283.035 605.533C283.249 604.903 278.532 598.096 278.532 598.096L264.69 604.34Z" fill="#29C782" stroke="#263238" stroke-width="1.34" stroke-linejoin="round"></path><path d="M203.184 458.508C203.184 458.508 189.905 457.235 189.141 456.98C188.377 456.726 185.818 451.366 185.121 450.977C183.555 450.377 182.021 449.697 180.525 448.94C179.361 447.997 178.404 446.825 177.711 445.496C177.202 444.733 175.553 444.987 175.808 446.126C176.234 447.238 176.836 448.274 177.59 449.195L175.031 450.977C175.031 450.977 179.627 462.715 181.289 462.849C182.95 462.983 189.074 462.97 189.074 462.97L205.476 470.34L203.184 458.508Z" fill="#C6867E" stroke="#263238" stroke-width="1.34" stroke-linejoin="round"></path><path d="M168.17 441.235L179.56 460.679L182.615 460.169L171.399 440.619C171.358 440.55 171.299 440.494 171.228 440.456C171.157 440.418 171.078 440.4 170.997 440.404L168.505 440.592C168.434 440.601 168.367 440.627 168.309 440.668C168.25 440.709 168.203 440.763 168.17 440.826C168.137 440.889 168.12 440.96 168.12 441.031C168.12 441.102 168.137 441.172 168.17 441.235Z" fill="white" stroke="#263238" stroke-width="1.34" stroke-linejoin="round"></path><path d="M175.996 456.726C175.996 456.726 176.505 459.017 176.893 459.272C177.282 459.526 181.49 458.133 181.61 456.98C181.731 455.828 180.458 455.064 180.458 455.064C180.458 455.064 177.148 456.94 175.996 456.726Z" fill="#C6867E" stroke="#263238" stroke-width="1.34" stroke-linejoin="round"></path><path d="M176.88 459.272C176.88 459.272 177.898 461.322 178.796 461.322C179.694 461.322 183.004 460.558 182.749 459.151C182.606 458.323 182.203 457.562 181.597 456.98L176.88 459.272Z" fill="#C6867E" stroke="#263238" stroke-width="1.34" stroke-linejoin="round"></path><path d="M190.454 371.086C190.454 371.086 185.389 373.404 185.389 374.45V375.508C185.389 375.508 186.233 383.736 186.649 385.21C187.064 386.684 188.98 390.69 188.98 391.749C188.98 392.808 187.292 395.957 187.493 396.6C187.694 397.243 191.513 398.074 191.513 398.074C191.513 398.074 194.689 406.288 195.948 406.288C197.208 406.288 202.648 403.608 202.648 403.608L207.713 413.725L208.343 417.517L221.207 406.985L213.65 395.3C213.65 395.3 218.916 388.6 217.442 380.748C215.968 372.895 215.539 368.098 206.896 367.468C201.198 367.265 195.541 368.51 190.454 371.086Z" fill="#C6867E" stroke="#263238" stroke-width="1.34" stroke-linejoin="round"></path><path d="M206.896 367.495C201.2 367.284 195.543 368.519 190.454 371.086C190.454 371.086 185.389 373.404 185.389 374.45V375.508C185.389 375.508 185.483 376.446 185.63 377.746L185.804 377.826L195.72 372.976C195.72 372.976 192.973 377.411 194.876 378.456C196.988 379.408 199.175 380.183 201.415 380.774C201.415 380.774 202.675 386.684 203.519 385.84C204.363 384.995 203.104 384.151 205.422 383.093C207.74 382.034 210.688 384.995 210.688 387.742C210.688 390.489 207.11 391.535 207.11 391.535L213.65 395.327C213.65 395.327 218.916 388.627 217.442 380.774C215.968 372.922 215.539 368.125 206.896 367.495Z" fill="#263238" stroke="#263238" stroke-width="1.34" stroke-linejoin="round"></path><path d="M191.928 390.275C193.138 390.29 194.32 389.919 195.305 389.216" stroke="#263238" stroke-width="1.34" stroke-linejoin="round"></path><path d="M190.655 386.469C191.274 386.056 191.994 385.819 192.738 385.783C193.481 385.748 194.221 385.916 194.876 386.268" stroke="#263238" stroke-width="1.34" stroke-linejoin="round"></path><path d="M220.39 405.444C220.39 405.444 209.04 412.827 205.02 419.581C201 426.334 199.325 430.756 199.74 434.763C200.156 438.77 203.104 471.68 203.104 471.68C203.104 471.68 201 487.063 200.585 487.907C200.169 488.752 198.682 493.602 198.682 493.602C198.682 493.602 202.702 496.55 216.182 498.024C229.663 499.498 243.599 495.921 243.599 495.921L239.378 473.569C239.378 473.569 239.579 431.185 237.89 426.12C236.202 421.055 233.468 414.743 229.676 411.38C226.839 409.024 223.72 407.03 220.39 405.444Z" fill="#142444" stroke="#142444" stroke-width="1.34" stroke-linejoin="round"></path><path d="M223.351 407.065C223.351 407.065 215.311 414.033 214.052 422.274C212.792 430.515 214.052 436.626 217.227 441.49C219.506 444.783 222.21 447.761 225.267 450.347L234.5 460.96L232.396 478.273C232.396 478.273 242.527 487.358 247.377 486.5C252.228 485.643 256.878 485.026 259.21 482.48C262.199 479.353 263.86 475.189 263.846 470.863C263.614 467.439 263.049 464.046 262.158 460.732C262.158 460.732 266.379 460.317 264.476 454.823C262.573 449.329 253.501 435.192 252.657 433.919C251.813 432.646 241.468 425.262 241.468 425.262L231.82 413.618C231.82 413.618 228.416 406.221 223.351 407.065Z" fill="#29C782" stroke="#263238" stroke-width="1.34" stroke-linejoin="round"></path><path d="M198.682 493.589C198.682 493.589 187.506 520.161 186.461 534.07C185.416 547.98 180.136 584.468 180.136 584.468L174.2 598.39L188.538 606.43L191.285 607.69C191.285 607.69 197.395 583.65 198.454 580.488C199.513 577.326 208.785 541.065 208.785 541.065L213.837 526.084C213.837 526.084 232.396 559.195 234.5 561.715C236.604 564.234 263.819 599.235 264.235 600.307C264.541 601.624 264.685 602.974 264.663 604.327L272.703 600.95L278.532 598.149L273.963 582.605C273.963 582.605 251.612 553.715 251.397 552.67C251.183 551.624 240.852 521.26 240.852 521.26C240.852 521.26 241.28 514.305 241.481 511.987C241.682 509.669 244.644 497.247 243.599 495.907L242.54 494.634L202.26 492.959L198.682 493.589Z" fill="#EAF5D2" stroke="#263238" stroke-width="1.34" stroke-linejoin="round"></path><path d="M213.864 526.057L209.643 515.31" stroke="#263238" stroke-width="1.34" stroke-linejoin="round"></path><path d="M174.2 598.39L169.778 601.338C169.778 601.338 156.914 599.864 155.855 601.124C154.797 602.384 155.654 604.715 160.076 607.462C164.498 610.209 171.681 613.358 173.999 613.787C176.317 614.216 186.22 617.15 188.123 616.735C190.025 616.32 191.285 607.663 191.285 607.663L174.2 598.39Z" fill="#29C782" stroke="#263238" stroke-width="1.34" stroke-linejoin="round"></path><path d="M238.949 438.341C238.949 438.341 242.138 454.568 242.138 457.945C242.138 461.322 256.878 462.595 260.094 462.38" stroke="#263238" stroke-width="1.34" stroke-linejoin="round"></path><path d="M227.988 411.38C230.748 414.06 236.845 417.919 237.89 426.12C238.474 430.175 238.828 434.259 238.949 438.354L221.1 440.244C221.1 440.244 218.139 429.698 217.294 425.276C216.45 420.854 222.989 412.827 222.989 412.827C222.989 412.827 226.46 409.933 227.988 411.38Z" fill="#142444" stroke="#142444" stroke-width="1.34" stroke-linejoin="round"></path><path d="M221.1 440.244L226.795 458.159C226.795 458.159 223.633 466.802 222.574 471.023C221.515 475.244 219.412 491.056 219.412 491.056L217.08 496.336L226.782 506.024C227.302 503.669 227.585 501.267 227.626 498.855C227.411 496.751 226.996 492.53 226.996 492.53C226.996 492.53 240.061 463.854 240.691 461.952C241.321 460.049 239.002 438.341 239.002 438.341L221.1 440.244Z" fill="#C6867E" stroke="#263238" stroke-width="1.34" stroke-linejoin="round"></path><path d="M178.16 267.282C188.838 264.778 195.464 254.091 192.959 243.413C190.455 232.735 179.768 226.11 169.09 228.614C158.412 231.119 151.786 241.805 154.291 252.483C156.795 263.161 167.482 269.787 178.16 267.282Z" stroke="#263238" stroke-width="1.34" stroke-linecap="round" stroke-linejoin="round"></path><path d="M167.353 256.087L173.61 247.954V233.401" stroke="#263238" stroke-width="1.34" stroke-linecap="round" stroke-linejoin="round"></path><path d="M565.641 144.573H495.358V189.677H565.641V144.573Z" stroke="#263238" stroke-width="1.34" stroke-miterlimit="10"></path><path d="M495.358 144.573L529.916 173.865L565.145 144.988" stroke="#263238" stroke-width="1.34" stroke-miterlimit="10"></path><path d="M495.358 189.677L520.536 166.83" stroke="#263238" stroke-width="1.34" stroke-miterlimit="10"></path><path d="M565.641 189.677L539.283 166.83" stroke="#263238" stroke-width="1.34" stroke-miterlimit="10"></path><path d="M581.078 58.3838C566.592 58.3838 554.84 67.7638 554.84 79.3816C554.84 86.8856 559.758 93.4382 567.155 97.15L562.706 108.259L576.736 100.071C578.175 100.269 579.625 100.372 581.078 100.379C595.576 100.379 607.328 90.9994 607.328 79.3816C607.328 67.7638 595.576 58.3838 581.078 58.3838Z" stroke="#263238" stroke-width="1.34" stroke-linecap="round" stroke-linejoin="round"></path><path d="M571.952 81.2308C573.395 81.2308 574.565 80.0609 574.565 78.6178C574.565 77.1746 573.395 76.0048 571.952 76.0048C570.509 76.0048 569.339 77.1746 569.339 78.6178C569.339 80.0609 570.509 81.2308 571.952 81.2308Z" stroke="#263238" stroke-width="1.34" stroke-linecap="round" stroke-linejoin="round"></path><path d="M583.691 78.6178C583.691 78.101 583.537 77.5958 583.25 77.1661C582.963 76.7364 582.555 76.4014 582.078 76.2037C581.6 76.0059 581.075 75.9541 580.568 76.055C580.061 76.1558 579.595 76.4047 579.23 76.7701C578.864 77.1355 578.616 77.6011 578.515 78.108C578.414 78.6149 578.466 79.1403 578.663 79.6177C578.861 80.0952 579.196 80.5033 579.626 80.7904C580.056 81.0775 580.561 81.2308 581.078 81.2308C581.421 81.2325 581.762 81.1662 582.08 81.0355C582.397 80.9048 582.686 80.7124 582.929 80.4694C583.172 80.2264 583.365 79.9376 583.495 79.6198C583.626 79.302 583.692 78.9614 583.691 78.6178Z" stroke="#263238" stroke-width="1.34" stroke-linecap="round" stroke-linejoin="round"></path><path d="M590.203 81.2308C591.646 81.2308 592.816 80.0609 592.816 78.6178C592.816 77.1746 591.646 76.0048 590.203 76.0048C588.76 76.0048 587.59 77.1746 587.59 78.6178C587.59 80.0609 588.76 81.2308 590.203 81.2308Z" stroke="#263238" stroke-width="1.34" stroke-linecap="round" stroke-linejoin="round"></path><path d="M530.787 51.4426C542.151 51.4426 551.356 58.8126 551.356 67.8978C551.356 73.767 547.497 78.8992 541.708 81.8204L545.179 90.517L534.191 84.0984C533.063 84.254 531.926 84.3346 530.787 84.3396C519.438 84.3396 510.232 76.983 510.232 67.8978C510.232 58.8126 519.438 51.4426 530.787 51.4426Z" stroke="#263238" stroke-width="1.34" stroke-linecap="round" stroke-linejoin="round"></path><path d="M525.2 67.8978C525.2 67.4393 525.064 66.9911 524.809 66.6099C524.554 66.2286 524.192 65.9315 523.769 65.7561C523.345 65.5806 522.879 65.5347 522.429 65.6241C521.979 65.7136 521.566 65.9344 521.242 66.2586C520.918 66.5828 520.697 66.9958 520.608 67.4455C520.518 67.8952 520.564 68.3613 520.74 68.7849C520.915 69.2085 521.212 69.5706 521.593 69.8253C521.975 70.08 522.423 70.216 522.881 70.216C523.495 70.2125 524.083 69.9671 524.517 69.5331C524.951 69.0991 525.196 68.5115 525.2 67.8978V67.8978Z" stroke="#263238" stroke-width="1.34" stroke-linecap="round" stroke-linejoin="round"></path><path d="M530.988 70.216C532.269 70.216 533.307 69.1781 533.307 67.8978C533.307 66.6175 532.269 65.5796 530.988 65.5796C529.708 65.5796 528.67 66.6175 528.67 67.8978C528.67 69.1781 529.708 70.216 530.988 70.216Z" stroke="#263238" stroke-width="1.34" stroke-linecap="round" stroke-linejoin="round"></path><path d="M539.109 70.216C540.389 70.216 541.427 69.1781 541.427 67.8978C541.427 66.6175 540.389 65.5796 539.109 65.5796C537.828 65.5796 536.791 66.6175 536.791 67.8978C536.791 69.1781 537.828 70.216 539.109 70.216Z" stroke="#263238" stroke-width="1.34" stroke-linecap="round" stroke-linejoin="round"></path><path d="M174.093 138.154H70.2294V202.702H174.093V138.154Z" stroke="#263238" stroke-width="1.34" stroke-linecap="round" stroke-linejoin="round"></path><path d="M123.048 184.382L112.208 177.977L147.626 157.044L123.048 184.382Z" fill="white" stroke="black" stroke-width="0.5"></path><path d="M107.389 173.085L96.6882 166.756L146.476 156.743L107.389 173.085Z" fill="white" stroke="black" stroke-width="0.5"></path><path d="M111.589 177.761L111.505 177.811L111.477 177.905L109.93 183.092L107.662 173.513L145.654 157.629L111.589 177.761Z" fill="white" stroke="black" stroke-width="0.5"></path><path opacity="0.2" d="M111.589 177.761L111.505 177.811L111.477 177.905L109.93 183.092L107.662 173.513L145.654 157.629L111.589 177.761Z" fill="black" stroke="black" stroke-width="0.5"></path><path d="M194.3 308.2H155.628C154.799 308.198 153.979 308.36 153.213 308.676C152.448 308.991 151.752 309.455 151.166 310.04C150.579 310.625 150.114 311.32 149.797 312.085C149.48 312.85 149.316 313.67 149.316 314.498V336.849C149.316 337.677 149.48 338.497 149.797 339.262C150.114 340.027 150.579 340.722 151.166 341.307C151.752 341.892 152.448 342.356 153.213 342.672C153.979 342.987 154.799 343.149 155.628 343.147H171.52L175.058 349.271L178.582 343.147H194.3C195.128 343.149 195.947 342.987 196.712 342.671C197.477 342.355 198.172 341.892 198.757 341.306C199.342 340.721 199.806 340.026 200.122 339.261C200.438 338.496 200.6 337.677 200.598 336.849V314.552C200.607 313.72 200.45 312.894 200.138 312.123C199.825 311.352 199.362 310.65 198.776 310.06C198.191 309.469 197.493 309 196.725 308.681C195.956 308.362 195.132 308.198 194.3 308.2V308.2Z" stroke="#263238" stroke-width="1.34" stroke-miterlimit="10"></path><path d="M189.329 322.243C189.33 324.167 188.569 326.013 187.211 327.375L185.295 329.292L175.031 339.543L164.82 329.292L162.904 327.375C162.214 326.706 161.664 325.906 161.286 325.022C160.907 324.139 160.709 323.188 160.702 322.227C160.694 321.266 160.878 320.312 161.243 319.423C161.607 318.533 162.145 317.725 162.825 317.045C163.505 316.366 164.313 315.828 165.202 315.463C166.092 315.099 167.045 314.915 168.006 314.922C168.968 314.93 169.918 315.128 170.802 315.506C171.686 315.884 172.485 316.434 173.155 317.124L175.071 319.041L176.987 317.124C178 316.109 179.292 315.417 180.698 315.136C182.105 314.854 183.563 314.997 184.889 315.545C186.215 316.093 187.348 317.022 188.145 318.214C188.943 319.407 189.369 320.809 189.369 322.243H189.329Z" stroke="#263238" stroke-width="1.34" stroke-miterlimit="10"></path><path d="M87.4752 306.364C90.8869 306.364 94.1589 305.009 96.5714 302.596C98.9839 300.184 100.339 296.912 100.339 293.5V252.697C100.395 250.972 100.103 249.253 99.4814 247.643C98.8596 246.033 97.9205 244.564 96.7199 243.324C95.5192 242.084 94.0815 241.098 92.4922 240.425C90.9029 239.751 89.1945 239.404 87.4685 239.404C85.7424 239.404 84.034 239.751 82.4447 240.425C80.8554 241.098 79.4177 242.084 78.2171 243.324C77.0164 244.564 76.0773 246.033 75.4556 247.643C74.8338 249.253 74.5421 250.972 74.5978 252.697V293.46C74.5925 295.154 74.9217 296.832 75.5667 298.398C76.2116 299.965 77.1596 301.388 78.356 302.587C79.5525 303.786 80.974 304.737 82.5389 305.385C84.1038 306.033 85.7813 306.366 87.4752 306.364V306.364Z" stroke="#263238" stroke-width="1.34" stroke-linecap="round" stroke-linejoin="round"></path><path d="M110.322 292.87V273.722C110.347 273.398 110.304 273.073 110.197 272.766C110.09 272.46 109.921 272.179 109.7 271.941C109.479 271.703 109.211 271.513 108.914 271.383C108.616 271.253 108.295 271.186 107.97 271.186C107.646 271.186 107.325 271.253 107.027 271.383C106.729 271.513 106.462 271.703 106.241 271.941C106.02 272.179 105.851 272.46 105.744 272.766C105.637 273.073 105.594 273.398 105.619 273.722V292.87C105.491 297.571 103.534 302.035 100.164 305.315C96.794 308.594 92.2776 310.428 87.5757 310.428C82.8738 310.428 78.3574 308.594 74.9876 305.315C71.6179 302.035 69.6607 297.571 69.5326 292.87V273.722C69.5326 273.096 69.2841 272.496 68.8418 272.054C68.3996 271.612 67.7997 271.363 67.1742 271.363C66.5487 271.363 65.9488 271.612 65.5066 272.054C65.0643 272.496 64.8158 273.096 64.8158 273.722V292.87C64.8216 298.497 66.9098 303.923 70.678 308.102C74.4462 312.281 79.6277 314.917 85.224 315.503V336.648H71.824C71.2309 336.693 70.6767 336.96 70.2723 337.396C69.8679 337.832 69.6432 338.405 69.6432 339C69.6432 339.595 69.8679 340.167 70.2723 340.604C70.6767 341.04 71.2309 341.307 71.824 341.352H103.26C103.584 341.376 103.909 341.333 104.216 341.226C104.522 341.119 104.804 340.95 105.042 340.729C105.28 340.508 105.47 340.241 105.6 339.943C105.729 339.646 105.796 339.325 105.796 339C105.796 338.675 105.729 338.354 105.6 338.057C105.47 337.759 105.28 337.491 105.042 337.271C104.804 337.05 104.522 336.881 104.216 336.774C103.909 336.666 103.584 336.624 103.26 336.648H89.8604V315.503C95.4664 314.93 100.661 312.299 104.44 308.118C108.219 303.938 110.315 298.506 110.322 292.87V292.87Z" stroke="#263238" stroke-width="1.34" stroke-linecap="round" stroke-linejoin="round"></path><path d="M613.305 197.811C615.406 199.618 617.092 201.857 618.248 204.375C619.404 206.894 620.004 209.632 620.005 212.403C620.005 221.609 605.573 240.785 601.673 245.81C603.456 248.208 604.648 249.682 604.648 249.682C604.648 249.682 623.944 225.683 623.944 215.043C623.946 211.466 622.952 207.959 621.073 204.915C619.194 201.872 616.504 199.411 613.305 197.811V197.811ZM604.621 208.343C605.13 208.348 605.637 208.402 606.136 208.504C605.505 207.622 604.67 206.906 603.701 206.418C602.733 205.929 601.661 205.684 600.577 205.701C599.492 205.719 598.429 205.999 597.477 206.518C596.525 207.037 595.713 207.78 595.111 208.682C594.509 209.584 594.136 210.619 594.022 211.697C593.908 212.776 594.058 213.865 594.458 214.873C594.858 215.881 595.497 216.777 596.32 217.483C597.142 218.19 598.124 218.686 599.181 218.929C598.468 217.928 598.045 216.751 597.956 215.525C597.868 214.3 598.118 213.073 598.68 211.981C599.241 210.888 600.093 209.97 601.141 209.329C602.189 208.687 603.393 208.346 604.621 208.343V208.343Z" stroke="#263238" stroke-width="1.34" stroke-linecap="round" stroke-linejoin="round"></path><path d="M601.66 245.81C601.044 246.614 600.682 247.042 600.682 247.042C600.682 247.042 581.386 223.07 581.386 212.403C581.39 208.706 582.455 205.087 584.455 201.977C586.455 198.868 589.306 196.397 592.669 194.861C596.032 193.324 599.766 192.785 603.426 193.308C607.087 193.831 610.52 195.394 613.318 197.811M606.136 208.504C606.85 209.507 607.273 210.687 607.361 211.915C607.448 213.143 607.196 214.371 606.631 215.464C606.066 216.558 605.211 217.475 604.159 218.115C603.107 218.754 601.899 219.092 600.668 219.09C600.168 219.091 599.669 219.037 599.181 218.929L606.136 208.504Z" stroke="#263238" stroke-width="1.34" stroke-linecap="round" stroke-linejoin="round"></path><path d="M572.18 357.15C570.183 356.869 568.16 356.654 566.163 356.293C540.047 351.603 521.675 337.278 512.041 312.341C509.057 304.516 507.553 296.206 507.605 287.832C507.572 286.921 507.755 286.015 508.14 285.188C508.524 284.361 509.099 283.637 509.816 283.075C512.764 280.636 515.645 278.104 518.553 275.611C521.233 273.288 523.775 273.449 526.178 276.094L542.445 293.983C544.764 296.542 544.683 299.061 542.204 301.46C538.747 304.81 535.317 308.16 531.846 311.523C531.619 311.697 531.453 311.939 531.374 312.214C531.294 312.489 531.305 312.782 531.404 313.051C532.92 318.577 536.073 323.515 540.449 327.215C543.605 330.108 547.403 332.211 551.531 333.352C551.849 333.472 552.197 333.491 552.526 333.404C552.855 333.318 553.149 333.131 553.366 332.869C556.663 329.412 560.066 326.009 563.336 322.578C565.721 320.126 568.267 320.046 570.827 322.364L588.796 338.712C591.355 341.03 591.476 343.522 589.238 346.162C587 348.802 584.562 351.522 582.27 354.323C581.369 355.558 580.158 356.533 578.759 357.15H572.18Z" stroke="#263238" stroke-width="1.34" stroke-linecap="round" stroke-linejoin="round"></path><path d="M554.331 277.594V268.59C559.87 268.435 565.382 269.41 570.53 271.457C575.679 273.504 580.356 276.579 584.277 280.494C588.197 284.41 591.278 289.083 593.331 294.229C595.385 299.375 596.367 304.886 596.22 310.424H587.242C585.647 290.03 574.659 279.162 554.331 277.594Z" stroke="#263238" stroke-width="1.34" stroke-linecap="round" stroke-linejoin="round"></path><path d="M554.398 296.515V287.256C568.817 286.72 578.076 295.711 577.567 310.424H568.321C568.616 300.964 563.966 296.261 554.398 296.515Z" stroke="#263238" stroke-width="1.34" stroke-linecap="round" stroke-linejoin="round"></path><path d="M127.517 49H105.418C95.2462 49 87 57.2462 87 67.4184V89.5174C87 99.6896 95.2462 107.936 105.418 107.936H127.517C137.69 107.936 145.936 99.6896 145.936 89.5174V67.4184C145.936 57.2462 137.69 49 127.517 49Z" fill="white" stroke="#263238" stroke-width="1.155" stroke-linecap="round" stroke-linejoin="round"></path><path d="M95.1003 79.8924V77.0434L106.881 71.9614V75.0414L98.7655 78.4756L106.881 81.8944V84.9744L95.1003 79.8924Z" fill="white" stroke="#263238" stroke-width="1.155" stroke-linecap="round" stroke-linejoin="round"></path><path d="M119.941 65.0005H123.606L112.98 91.9505H109.315L119.941 65.0005Z" fill="white" stroke="#263238" stroke-width="1.155" stroke-linecap="round" stroke-linejoin="round"></path><path d="M126.039 81.8942L134.155 78.4754L126.039 75.0104V71.9304L137.82 77.0124V79.8614L126.039 84.9434V81.8942Z" fill="white" stroke="#263238" stroke-width="1.155" stroke-linecap="round" stroke-linejoin="round"></path><path d="M319.133 339H316.285H313.339L310 348.133H312.946H315.794H318.79L322.129 339H319.133Z" fill="#29C782"></path><path d="M323.946 339L320.606 348.133H323.602L323.995 346.857H327.186L327.579 348.133H330.673L327.334 339H323.946ZM324.584 344.794L325.566 341.553H325.615L326.548 344.794H324.584Z" fill="#142444"></path><path d="M335.878 340.964C335.436 340.964 335.043 341.062 334.699 341.259C334.356 341.455 334.11 341.799 333.963 342.192L333.766 341.111H331.606V348.133H334.257V344.991C334.257 344.451 334.356 344.009 334.601 343.714C334.847 343.419 335.24 343.272 335.78 343.272H336.614V341.062C336.614 341.062 336.516 341.013 336.369 340.964C336.222 340.964 336.074 340.964 335.878 340.964Z" fill="#142444"></path><path d="M345.895 341.111H342.802L340.592 343.812V339H337.94V348.133H340.592V346.611L341.476 345.727L342.949 348.133H345.993L343.293 343.96L345.895 341.111Z" fill="#142444"></path><path d="M349.971 340.964C348.743 340.964 347.761 341.259 347.074 341.897C346.386 342.535 346.042 343.419 346.042 344.647C346.042 345.875 346.386 346.808 347.123 347.397C347.859 347.986 348.841 348.33 350.167 348.33C351.395 348.33 352.328 348.084 353.015 347.593C353.654 347.102 353.997 346.464 353.997 345.58H351.444C351.444 345.875 351.346 346.12 351.149 346.316C350.953 346.513 350.609 346.611 350.167 346.611C349.676 346.611 349.332 346.464 349.087 346.218C348.841 345.973 348.743 345.58 348.743 345.089H353.997V344.647C353.997 343.419 353.654 342.486 352.966 341.897C352.23 341.259 351.247 340.964 349.971 340.964ZM348.694 343.812C348.792 343.026 349.234 342.634 350.069 342.634C350.462 342.634 350.707 342.732 350.953 342.928C351.149 343.125 351.247 343.419 351.247 343.812H348.694Z" fill="#142444"></path><path d="M360.528 343.91C360.135 343.812 359.595 343.665 358.957 343.616C358.466 343.518 358.073 343.469 357.877 343.37C357.68 343.272 357.533 343.174 357.533 343.027C357.533 342.732 357.827 342.585 358.466 342.585C358.711 342.585 358.908 342.634 359.055 342.732C359.301 342.83 359.399 343.027 359.399 343.272H361.854C361.854 342.486 361.51 341.946 360.872 341.553C360.234 341.21 359.448 341.013 358.466 341.013C357.435 341.013 356.551 341.21 355.912 341.553C355.274 341.897 354.93 342.536 354.93 343.37C354.93 343.91 355.078 344.303 355.372 344.598C355.667 344.893 356.011 345.089 356.453 345.236C356.845 345.384 357.386 345.482 358.024 345.58C358.564 345.678 358.908 345.776 359.153 345.826C359.399 345.924 359.497 346.022 359.497 346.218C359.497 346.562 359.153 346.758 358.417 346.758C358.122 346.758 357.877 346.709 357.631 346.562C357.386 346.464 357.238 346.218 357.238 345.924V345.875H354.783C354.783 346.415 354.979 346.906 355.323 347.25C355.667 347.593 356.109 347.888 356.649 348.035C357.189 348.232 357.778 348.281 358.417 348.281C359.497 348.281 360.381 348.084 361.019 347.691C361.707 347.299 362.001 346.66 362.001 345.776C362.001 345.236 361.854 344.794 361.559 344.5C361.314 344.205 360.921 344.009 360.528 343.91Z" fill="#142444"></path><path d="M366.961 340.964C365.733 340.964 364.751 341.259 364.064 341.897C363.376 342.535 363.033 343.419 363.033 344.647C363.033 345.875 363.376 346.808 364.113 347.397C364.849 347.986 365.831 348.33 367.157 348.33C368.385 348.33 369.318 348.084 370.005 347.593C370.644 347.102 370.987 346.464 370.987 345.58H368.434C368.434 345.875 368.336 346.12 368.139 346.316C367.943 346.513 367.599 346.611 367.157 346.611C366.666 346.611 366.323 346.464 366.077 346.218C365.832 345.973 365.733 345.58 365.733 345.089H370.987V344.647C370.987 343.419 370.644 342.486 369.956 341.897C369.22 341.259 368.238 340.964 366.961 340.964ZM365.635 343.812C365.733 343.026 366.175 342.634 367.01 342.634C367.403 342.634 367.648 342.732 367.894 342.928C368.09 343.125 368.189 343.419 368.189 343.812H365.635Z" fill="#142444"></path><path d="M374.916 339H372.264V348.133H374.916V339Z" fill="#142444"></path><path d="M306.43 177.656H302.225H297.892L293 191.001H297.334H301.539H305.873L310.764 177.656H306.43Z" fill="#29C782"></path><path d="M313.425 177.656L308.533 191.044H312.91L313.467 189.156H318.145L318.702 191.044H323.251L318.359 177.656H313.425ZM314.369 186.152L315.785 181.389H315.87L317.286 186.152H314.369Z" fill="white"></path><path d="M330.846 180.488C330.202 180.488 329.644 180.66 329.129 180.96C328.614 181.261 328.271 181.733 328.014 182.29L327.756 180.746H324.581V191.001H328.443V186.453C328.443 185.637 328.614 185.037 328.958 184.608C329.301 184.178 329.902 184.007 330.717 184.007H331.961V180.746C331.961 180.746 331.832 180.703 331.618 180.617C331.446 180.531 331.146 180.488 330.846 180.488Z" fill="white"></path><path d="M345.563 180.746H341.058L337.754 184.693V177.613H333.892V191.001H337.754V188.813L339.084 187.525L341.272 191.001H345.649L341.744 184.908L345.563 180.746Z" fill="white"></path><path d="M351.485 180.531C349.682 180.531 348.266 181.003 347.237 181.904C346.207 182.805 345.692 184.135 345.692 185.895C345.692 187.697 346.207 189.027 347.28 189.928C348.309 190.829 349.811 191.258 351.699 191.258C353.501 191.258 354.874 190.915 355.818 190.229C356.762 189.542 357.234 188.555 357.234 187.311H353.501C353.501 187.783 353.33 188.126 353.029 188.383C352.729 188.641 352.257 188.813 351.613 188.813C350.884 188.813 350.369 188.641 350.069 188.255C349.725 187.869 349.554 187.311 349.554 186.581H357.277V185.938C357.277 184.135 356.762 182.762 355.776 181.904C354.832 180.96 353.373 180.531 351.485 180.531ZM349.597 184.736C349.725 183.578 350.412 183.02 351.656 183.02C352.214 183.02 352.643 183.191 352.944 183.492C353.244 183.792 353.416 184.221 353.416 184.736H349.597Z" fill="white"></path><path d="M366.932 184.822C366.331 184.65 365.559 184.479 364.658 184.35C363.928 184.221 363.37 184.136 363.07 184.007C362.727 183.921 362.598 183.749 362.598 183.492C362.598 183.063 363.07 182.848 364.014 182.848C364.357 182.848 364.658 182.934 364.872 183.063C365.215 183.234 365.387 183.492 365.387 183.878H368.991C368.991 182.762 368.519 181.904 367.575 181.389C366.631 180.832 365.473 180.574 364.1 180.574C362.555 180.574 361.311 180.832 360.367 181.389C359.423 181.904 358.951 182.805 358.951 184.093C358.951 184.865 359.165 185.466 359.594 185.895C360.023 186.324 360.538 186.624 361.139 186.839C361.74 187.01 362.469 187.182 363.413 187.354C364.186 187.482 364.743 187.611 365.044 187.74C365.387 187.869 365.559 188.04 365.559 188.298C365.559 188.813 365.001 189.07 363.928 189.07C363.542 189.07 363.156 188.984 362.813 188.813C362.469 188.641 362.255 188.341 362.255 187.869V187.783H358.65C358.65 188.598 358.908 189.285 359.423 189.799C359.938 190.314 360.581 190.743 361.397 190.958C362.212 191.215 363.07 191.344 363.971 191.344C365.559 191.344 366.846 191.087 367.79 190.529C368.777 189.971 369.249 189.027 369.249 187.74C369.249 186.925 369.034 186.324 368.562 185.852C368.09 185.294 367.533 184.994 366.932 184.822Z" fill="white"></path><path d="M376.329 180.531C374.527 180.531 373.111 181.003 372.081 181.904C371.051 182.805 370.536 184.135 370.536 185.895C370.536 187.697 371.051 189.027 372.124 189.928C373.154 190.829 374.655 191.258 376.543 191.258C378.346 191.258 379.719 190.915 380.663 190.229C381.607 189.542 382.079 188.555 382.079 187.311H378.346C378.346 187.783 378.174 188.126 377.874 188.383C377.573 188.641 377.101 188.813 376.458 188.813C375.728 188.813 375.213 188.641 374.913 188.255C374.57 187.869 374.398 187.311 374.398 186.581H382.079V185.938C382.079 184.135 381.564 182.762 380.577 181.904C379.633 180.96 378.217 180.531 376.329 180.531ZM374.441 184.736C374.57 183.578 375.256 183.02 376.5 183.02C377.058 183.02 377.487 183.191 377.788 183.492C378.088 183.792 378.26 184.221 378.26 184.736H374.441Z" fill="white"></path><path d="M388 177.656H384.138V191.044H388V177.656Z" fill="white"></path></svg>